<?xml version="1.0" encoding="UTF-8"?>
<svg id="Layer_2" data-name="Layer 2" xmlns="http://www.w3.org/2000/svg" viewBox="0 0 500 500">
  <defs>
    <style>
      .cls-1 {
        fill: #041e2a;
      }

      .cls-2 {
        fill: #ececec;
      }
    </style>
  </defs>
  <g id="Camada_1" data-name="Camada 1">
    <g>
      <circle class="cls-2" cx="250" cy="250" r="250"/>
      <g>
        <g>
          <path class="cls-1" d="m232.57,213.49h11.07v42.33h-11.07v-4.99c-3.32,4.12-7.98,6.18-13.99,6.18s-10.63-2.16-14.72-6.48c-4.09-4.32-6.14-9.61-6.14-15.87s2.05-11.56,6.14-15.87c4.09-4.32,9-6.48,14.72-6.48,6.01,0,10.67,2.06,13.99,6.18v-5.01Zm-20.43,29.76c2.23,2.23,5.06,3.34,8.5,3.34s6.28-1.12,8.54-3.34c2.26-2.23,3.39-5.09,3.39-8.59s-1.13-6.37-3.39-8.59c-2.26-2.23-5.1-3.34-8.54-3.34s-6.27,1.12-8.5,3.34c-2.23,2.23-3.35,5.09-3.35,8.59s1.12,6.36,3.35,8.59Z"/>
          <path class="cls-1" d="m253.69,255.81v-61.8h11.07v61.8h-11.07Z"/>
          <path class="cls-1" d="m297.98,205.87c-6.06-.45-9.1,1.95-9.1,7.19v.42h9.1v10.5h-9.1v31.83h-11.07v-31.83h-6.18v-10.5h6.18v-.42c0-5.98,1.69-10.52,5.06-13.63,3.38-3.1,8.41-4.46,15.1-4.06v10.5h0Z"/>
          <path class="cls-1" d="m334.03,213.49h11.07v42.33h-11.07v-4.99c-3.32,4.12-7.98,6.18-13.99,6.18s-10.63-2.16-14.72-6.48c-4.09-4.32-6.14-9.61-6.14-15.87s2.05-11.56,6.14-15.87c4.09-4.32,9-6.48,14.72-6.48,6.01,0,10.67,2.06,13.99,6.18v-5.01Zm-20.43,29.76c2.23,2.23,5.06,3.34,8.5,3.34s6.28-1.12,8.54-3.34c2.26-2.23,3.39-5.09,3.39-8.59s-1.13-6.37-3.39-8.59c-2.26-2.23-5.1-3.34-8.54-3.34s-6.27,1.12-8.5,3.34c-2.23,2.23-3.35,5.09-3.35,8.59s1.12,6.36,3.35,8.59Z"/>
          <path class="cls-1" d="m200.52,270.96c-.75,0-1.38-.25-1.89-.76-.51-.5-.77-1.12-.77-1.83s.26-1.33.77-1.85c.51-.52,1.15-.78,1.89-.78s1.34.26,1.85.78c.51.52.77,1.14.77,1.85s-.26,1.32-.77,1.83c-.5.51-1.12.76-1.85.76Zm-1.99,26.31v-22.26h3.93v22.26h-3.93Z"/>
          <path class="cls-1" d="m219.71,274.43c2.65,0,4.77.82,6.36,2.47,1.6,1.65,2.39,3.88,2.39,6.7v13.66h-3.93v-13.44c0-1.81-.5-3.21-1.49-4.2-.99-.99-2.36-1.49-4.11-1.49-1.96,0-3.53.6-4.74,1.8-1.2,1.2-1.81,3.05-1.81,5.54v11.8h-3.93v-22.26h3.93v3.21c1.6-2.52,4.04-3.79,7.32-3.79Z"/>
          <path class="cls-1" d="m246.19,278.75h-6v12.06c0,1.1.22,1.88.66,2.34.44.46,1.11.7,2.01.71.9.01,2.01,0,3.34-.07v3.47c-3.43.44-5.94.17-7.54-.82-1.6-.99-2.39-2.87-2.39-5.63v-12.06h-4.47v-3.74h4.47v-5.07l3.93-1.16v6.23h6v3.73h0Z"/>
          <path class="cls-1" d="m252.47,287.92c.39,1.99,1.32,3.53,2.77,4.63,1.46,1.1,3.26,1.65,5.39,1.65,2.98,0,5.14-1.08,6.5-3.25l3.34,1.87c-2.2,3.36-5.51,5.03-9.93,5.03-3.58,0-6.49-1.1-8.73-3.32-2.24-2.21-3.36-5.01-3.36-8.39s1.1-6.14,3.3-8.37c2.2-2.23,5.04-3.34,8.53-3.34,3.31,0,6.01,1.15,8.1,3.45,2.09,2.3,3.14,5.07,3.14,8.3,0,.56-.05,1.14-.13,1.74h-18.92Zm7.8-9.84c-2.11,0-3.85.59-5.24,1.76-1.38,1.17-2.24,2.74-2.57,4.69h15.07c-.33-2.11-1.17-3.71-2.53-4.8-1.34-1.09-2.93-1.65-4.73-1.65Z"/>
          <path class="cls-1" d="m276.03,297.26v-32.49h3.93v32.49h-3.93Z"/>
          <path class="cls-1" d="m287.94,270.96c-.75,0-1.38-.25-1.89-.76-.51-.5-.77-1.12-.77-1.83s.26-1.33.77-1.85c.51-.52,1.15-.78,1.89-.78s1.34.26,1.85.78c.51.52.77,1.14.77,1.85s-.26,1.32-.77,1.83c-.51.51-1.13.76-1.85.76Zm-1.99,26.31v-22.26h3.93v22.26h-3.93Z"/>
          <path class="cls-1" d="m314.61,275.01h3.88v21.32c0,3.29-1.13,5.85-3.38,7.68-2.26,1.83-4.96,2.74-8.12,2.74-2.53,0-4.71-.47-6.55-1.4s-3.22-2.28-4.15-4.03l3.43-1.91c1.23,2.49,3.69,3.74,7.35,3.74,2.35,0,4.19-.61,5.53-1.82,1.34-1.22,2.01-2.88,2.01-4.99v-3.16c-1.99,2.97-4.81,4.45-8.49,4.45-3.22,0-5.94-1.13-8.17-3.38-2.22-2.25-3.34-5-3.34-8.23s1.11-5.97,3.34-8.21c2.22-2.24,4.95-3.36,8.17-3.36,3.7,0,6.53,1.47,8.49,4.41v-3.83h0Zm-13.77,16.65c1.54,1.51,3.44,2.27,5.73,2.27s4.2-.76,5.73-2.27c1.54-1.51,2.3-3.39,2.3-5.65s-.77-4.09-2.3-5.61c-1.54-1.51-3.45-2.27-5.73-2.27s-4.2.76-5.73,2.27c-1.54,1.51-2.3,3.38-2.3,5.61,0,2.25.77,4.14,2.3,5.65Z"/>
          <path class="cls-1" d="m327.2,287.92c.39,1.99,1.32,3.53,2.77,4.63,1.46,1.1,3.26,1.65,5.39,1.65,2.98,0,5.14-1.08,6.5-3.25l3.34,1.87c-2.2,3.36-5.51,5.03-9.93,5.03-3.58,0-6.49-1.1-8.73-3.32-2.24-2.21-3.36-5.01-3.36-8.39s1.1-6.14,3.3-8.37c2.2-2.23,5.04-3.34,8.53-3.34,3.31,0,6.01,1.15,8.1,3.45,2.09,2.3,3.14,5.07,3.14,8.3,0,.56-.05,1.14-.13,1.74h-18.92Zm7.81-9.84c-2.1,0-3.85.59-5.24,1.76-1.38,1.17-2.24,2.74-2.57,4.69h15.07c-.33-2.11-1.17-3.71-2.53-4.8-1.35-1.09-2.93-1.65-4.73-1.65Zm-.29-9.66l-2.78,3.64h-4.2s4.79-6,4.79-6h4.33l4.79,6.01-4.2-.08-2.73-3.56Z"/>
          <path class="cls-1" d="m362,274.43c2.65,0,4.77.82,6.36,2.47,1.6,1.65,2.39,3.88,2.39,6.7v13.66h-3.93v-13.44c0-1.81-.5-3.21-1.49-4.2-.99-.99-2.36-1.49-4.11-1.49-1.96,0-3.53.6-4.74,1.8s-1.81,3.05-1.81,5.54v11.8h-3.93v-22.26h3.93v3.21c1.6-2.52,4.04-3.79,7.32-3.79Z"/>
          <path class="cls-1" d="m386.82,297.85c-3.4,0-6.23-1.12-8.49-3.36-2.26-2.24-3.38-5.02-3.38-8.34s1.13-6.1,3.38-8.34c2.26-2.24,5.08-3.36,8.49-3.36,2.22,0,4.23.53,6,1.58,1.77,1.05,3.1,2.47,3.97,4.25l-3.3,1.87c-.57-1.19-1.45-2.13-2.64-2.85-1.19-.71-2.54-1.07-4.04-1.07-2.26,0-4.14.76-5.67,2.27-1.52,1.51-2.28,3.4-2.28,5.65s.76,4.09,2.28,5.61c1.52,1.51,3.41,2.27,5.67,2.27,1.5,0,2.86-.35,4.06-1.04,1.2-.7,2.12-1.64,2.75-2.83l3.34,1.91c-.97,1.75-2.35,3.15-4.15,4.2-1.81,1.05-3.81,1.58-6.01,1.58Z"/>
          <path class="cls-1" d="m402.84,270.96c-.75,0-1.39-.25-1.89-.76-.51-.5-.77-1.12-.77-1.83s.26-1.33.77-1.85c.51-.52,1.14-.78,1.89-.78s1.34.26,1.85.78c.51.52.77,1.14.77,1.85s-.26,1.32-.77,1.83c-.51.51-1.12.76-1.85.76Zm-1.99,26.31v-22.26h3.93v22.26h-3.93Z"/>
          <path class="cls-1" d="m429.46,275.01h3.93v22.26h-3.93v-3.83c-1.96,2.94-4.8,4.41-8.53,4.41-3.16,0-5.85-1.14-8.08-3.41-2.22-2.27-3.33-5.03-3.33-8.3s1.11-6.03,3.33-8.3c2.22-2.27,4.92-3.41,8.08-3.41,3.73,0,6.57,1.47,8.53,4.41v-3.83Zm-8.03,19.1c2.28,0,4.2-.76,5.73-2.29s2.3-3.42,2.3-5.67-.77-4.15-2.3-5.67c-1.54-1.53-3.45-2.29-5.73-2.29s-4.15.76-5.68,2.29c-1.54,1.53-2.31,3.42-2.31,5.67s.77,4.15,2.31,5.67,3.43,2.29,5.68,2.29Z"/>
        </g>
        <path class="cls-1" d="m91.41,258.02l-20.09,6.49,10.81,13.43,9.28-19.92Z"/>
        <path class="cls-1" d="m99.54,273.27c0-.06.01-.12.03-.19,0-.03.01-.06.02-.09,0-.04.02-.08.03-.12,0-.01,0-.03.02-.05.01-.05.03-.09.05-.14.01-.03.02-.05.03-.08.01-.03.03-.07.04-.09.01-.03.02-.05.04-.08.02-.04.05-.09.08-.15.11-.18.25-.34.39-.47.1-.09.21-.18.32-.24.06-.04.14-.09.22-.12.04-.02.08-.04.13-.06.02,0,.03-.02.06-.02.02,0,.03-.01.04-.02l-.83-14.86c-.57-.1-1.08-.41-1.43-.87l-5.86,1.89-9.59,20.58,16.2-4.82s0-.02,0-.02Z"/>
        <path class="cls-1" d="m119.19,239.54l-13.83-5.08c-.19.24-.42.43-.69.58l3.26,11.76c.44.03.86.18,1.21.43l10.04-7.69Z"/>
        <path class="cls-1" d="m105.65,249.89c-.11-.26-.16-.55-.16-.83,0-.87.51-1.66,1.29-2.03l-3.24-11.7c-.08,0-.17,0-.26-.02l-7.14,15.32c.57.42.9,1.08.9,1.8,0,.08,0,.17-.02.25l1.58.49c.4-.72,1.16-1.16,2.01-1.16.57,0,1.11.2,1.52.57l3.51-2.69Z"/>
        <path class="cls-1" d="m77.87,249.63l-6.42,13.63,20.63-6.66,1.15-2.46c-.49-.42-.77-1.03-.78-1.67l-12.29-3.82c-.42.63-1.14,1.01-1.92,1.01-.12,0-.25,0-.36-.02Z"/>
        <path class="cls-1" d="m108.94,193.56l6.13,12.88s.03,0,.05,0c.03,0,.08-.01.13-.02.03,0,.07,0,.11-.01.03,0,.08,0,.13,0,.04,0,.09,0,.13,0,.05,0,.09,0,.13.01.04,0,.08.01.12.02.02,0,.05,0,.08.01l3.63-7.12-10.64-5.77Z"/>
        <path class="cls-1" d="m104.11,273.84h0v.02s-.02.1-.03.17c-.03.15-.09.3-.17.46,0,.02-.02.04-.04.07-.01.03-.03.07-.06.1l15.35,16.97-11.18-40.32c-.06,0-.12,0-.18,0-.52,0-1.04-.18-1.44-.5l-3.56,2.72c.08.24.12.48.12.73,0,.97-.62,1.82-1.54,2.14l.83,14.84s.09.02.13.03c.03,0,.06.01.1.02.02,0,.06.02.1.03.07.02.12.04.17.06.08.03.16.07.23.11.05.03.11.06.17.1h.02s.01.02.01.02c.04.03.08.06.13.09.02.02.03.03.05.04.05.04.1.09.15.13l.07.07c.06.06.1.12.15.17.04.06.09.12.13.19.02.02.04.06.06.1,0,.01.02.03.03.05.02.03.03.06.04.09,0,.01.02.04.03.07.02.04.03.07.04.09,0,.02.02.05.03.08.02.07.04.15.06.23,0,.03.02.07.02.1,0,.04.01.09.02.14,0,0,0,.06,0,.07v.14c0,.06,0,.12,0,.18l-.02.18Z"/>
        <path class="cls-1" d="m76.8,249.17c-.55-.42-.87-1.08-.87-1.78v-.07l-9.05-2.81,4.24,7.68c.05.09.07.19.07.29l-.2,9,5.81-12.32Z"/>
        <path class="cls-1" d="m101.6,231.85c.42-.65,1.16-1.06,1.95-1.06.17,0,.35.02.52.06l4.74-10.18c-.16-.13-.3-.28-.41-.44l-18.41,6.9s.01.07.02.1c0,.04.01.09.02.14,0,.07,0,.12,0,.17v.04l11.57,4.25Z"/>
        <path class="cls-1" d="m89.37,229.16c-.07.07-.15.14-.23.2-.03.03-.08.06-.13.09-.13.09-.28.17-.45.23-.04.02-.08.03-.12.04h-.03s-.09.03-.13.04l-.07.02s-.06.01-.1.02c-.05,0-.11.01-.16.02-.07,0-.13,0-.19,0s-.12,0-.18,0c-.04,0-.08,0-.12-.01-.04,0-.08-.01-.12-.02-.02,0-.04,0-.07-.01l-7.51,15.91c.51.43.79,1.04.79,1.71,0,.05,0,.1,0,.16l12.2,3.8c.4-.72,1.17-1.18,2.01-1.18.11,0,.22,0,.32.02l7.13-15.3c-.58-.42-.94-1.11-.94-1.83v-.11l-11.54-4.24s-.03.06-.06.09c-.03.04-.06.09-.09.13-.03.04-.06.07-.09.1l-.2-.13.18.15s-.07.08-.1.1Z"/>
        <path class="cls-1" d="m94.27,254.65l-.68,1.46,4.75-1.53c-.01-.09-.02-.18-.02-.28l-1.71-.53c-.43.59-1.11.94-1.86.94-.17,0-.32-.02-.48-.05Z"/>
        <path class="cls-1" d="m115.91,210.9s-.07.01-.1.02c-.11.02-.22.02-.32.02-.07,0-.13,0-.21-.01-.04,0-.09,0-.14-.02-.04,0-.08-.01-.13-.02l-3.23,6.34c.49.42.78,1.04.78,1.7,0,1.25-1.03,2.27-2.3,2.27-.13,0-.27-.01-.4-.03l-4.54,9.76,14.33-12.14-3.75-7.88Z"/>
        <path class="cls-1" d="m119.78,240.53l-9.91,7.58c.13.3.21.62.21.94,0,.76-.39,1.46-1.01,1.87l10.71,38.62v-49.01Z"/>
        <path class="cls-1" d="m108.96,297.15s.03-.01.05-.02l10.34-3.56-16.39-18.12s-.05.03-.05.03c-.06.03-.13.06-.2.09-.09.03-.17.07-.26.09l1.34,24,5.16-2.51Z"/>
        <path class="cls-1" d="m119.78,220.18l-14.13,11.97c.12.28.19.6.19.9,0,.12-.01.23-.03.34l13.96,5.13v-18.34h0Z"/>
        <path class="cls-1" d="m101.29,275.69c-.25-.06-.48-.15-.68-.29-.08-.06-.16-.11-.25-.18-.04-.04-.08-.07-.12-.1-.2-.19-.37-.42-.49-.68l-16.39,4.88,2.29,2.35,5.78,5.93,11.17,11.47-1.31-23.36Z"/>
        <path class="cls-1" d="m119.78,201.53l-2.77,5.45s.03.03.05.04c.03.03.07.07.1.1.09.09.18.2.25.31.02.03.05.07.07.1.01.02.03.04.04.08l.02.03c.04.08.08.17.11.25l.03.07c.04.12.06.22.08.32,0,.02.01.06.02.09,0,.02,0,.04.01.07,0,.04,0,.08,0,.11s0,.08,0,.12,0,.09,0,.13c0,.06,0,.1-.02.15,0,.03-.01.07-.02.11-.01.06-.02.1-.03.15-.01.04-.02.08-.03.13-.02.04-.03.09-.04.13-.06.14-.12.26-.19.37-.02.03-.05.07-.07.1-.03.04-.05.07-.08.11-.02.03-.05.07-.08.09-.02.02-.05.06-.08.09-.06.06-.11.11-.18.17l2.82,5.93v-14.81h0Z"/>
        <path class="cls-1" d="m100.72,298.79l-17.95-18.42-.41,6.8,14.2,9.75,4.16,1.87Z"/>
        <path class="cls-1" d="m72.35,222.61l34.83-3.92-24.98-6.69-9.85,10.61Z"/>
        <path class="cls-1" d="m83.6,211.19l24.68,6.61c.06-.1.13-.2.21-.29l-10.32-13.84-14.57,7.52Z"/>
        <path class="cls-1" d="m78.23,245.13c.15,0,.31.02.45.04l7.51-15.93c-.12-.11-.24-.24-.35-.39l-.06-.09s-.02-.03-.03-.04l-12.19,4.56-6.96,9.93,9.65,3c.41-.67,1.16-1.1,1.97-1.1Z"/>
        <path class="cls-1" d="m99.09,202.96l10.34,13.86c.27-.1.56-.16.85-.16.16,0,.31.02.46.04l1.44-2.82,1.8-3.52h-.02c-.06-.06-.1-.1-.14-.14-.04-.04-.07-.08-.11-.12-.03-.03-.07-.08-.1-.13-.12-.16-.21-.34-.28-.53l-.03-.08c-.04-.12-.06-.22-.08-.32,0-.02-.01-.06-.02-.1,0-.01,0-.03,0-.06,0-.04,0-.07,0-.11,0-.03,0-.08,0-.12,0-.05,0-.09,0-.14,0-.05,0-.1.02-.15,0-.02,0-.06.01-.09v-.05s.02-.06.03-.08v-.02c.02-.09.05-.18.08-.26v-.03s.04-.08.06-.11c.03-.06.05-.1.08-.15.03-.05.06-.09.08-.14.03-.04.06-.09.09-.13.03-.04.07-.08.1-.12.03-.04.07-.07.1-.11.06-.06.11-.11.17-.16l-6.51-13.68-8.43,9.7Z"/>
        <path class="cls-1" d="m73.61,232.04l11.83-4.43v-.05c0-1.25,1.03-2.27,2.3-2.27.05,0,.1,0,.14,0h0s.06,0,.1.01c.12.01.25.03.39.07.04.01.08.03.12.04.17.06.36.15.54.26.04.03.08.05.11.08.06.04.12.1.18.15l.07.07s.05.05.07.08c.01.01.02.02.03.03l16.21-6.07-34.1,3.85,2.02,8.18Z"/>
        <path class="cls-1" d="m143.18,253.17l1.58-.49c-.01-.08-.01-.17-.01-.25,0-.72.33-1.37.9-1.8l-7.14-15.32c-.08.01-.17.02-.26.02l-3.24,11.69c.78.37,1.29,1.17,1.29,2.03,0,.29-.06.57-.16.83l3.51,2.69c.41-.36.96-.57,1.52-.57.84,0,1.61.46,2,1.17Z"/>
        <path class="cls-1" d="m132.98,220.67l4.74,10.18c.17-.04.35-.06.52-.06.79,0,1.53.41,1.95,1.06l11.57-4.25v-.04s0-.1,0-.15v-.04s.02-.09.02-.13c0-.03,0-.06.02-.09l-18.41-6.9c-.12.16-.26.3-.42.43Z"/>
        <path class="cls-1" d="m140.86,271.4s.08.04.13.06c.07.03.15.08.22.13.1.06.21.14.31.24.15.13.27.29.39.47.03.05.06.1.09.16.01.02.02.04.03.07.02.03.03.06.04.09.01.03.02.05.03.08.02.04.03.09.05.14,0,.02.01.04.02.06.01.02.02.07.03.11.01.03.02.07.02.1.01.06.02.12.03.19h0s16.2,4.83,16.2,4.83l-9.58-20.59-5.86-1.89c-.35.45-.86.76-1.43.87l-.83,14.86s.03.01.04.02c.02,0,.04.02.07.03Z"/>
        <path class="cls-1" d="m145.19,253.76l-1.71.53c0,.09,0,.19-.02.28l4.75,1.53-.68-1.46c-.16.03-.31.05-.47.05-.76,0-1.44-.35-1.87-.94Z"/>
        <path class="cls-1" d="m170.47,264.51l-20.08-6.49,9.28,19.92,10.81-13.43Z"/>
        <path class="cls-1" d="m137.66,273.35v-.07c0-.06.01-.1.02-.14,0-.03.01-.07.02-.11.02-.08.04-.16.06-.24,0-.02.02-.06.03-.08,0-.02.02-.04.03-.07.02-.04.03-.07.04-.09,0-.02.02-.04.04-.08.01-.02.02-.04.03-.06.01-.03.03-.06.06-.1.03-.05.07-.11.12-.17.05-.06.1-.12.14-.17l.08-.08c.05-.05.1-.09.15-.13.01-.01.03-.03.05-.04.04-.03.08-.06.12-.09h.01s.03-.02.03-.02c.06-.04.12-.07.18-.1.07-.04.15-.08.22-.1.05-.02.11-.04.16-.06.04-.01.08-.02.11-.03.02,0,.05-.02.08-.02.04-.01.09-.02.13-.03l.83-14.84c-.92-.31-1.54-1.17-1.54-2.14,0-.25.04-.5.12-.73l-3.56-2.72c-.4.32-.92.5-1.44.5-.06,0-.12,0-.18,0l-11.17,40.3,15.35-16.97-.02-.04s-.03-.05-.04-.08c0-.01-.02-.04-.03-.07-.07-.15-.13-.3-.17-.46-.01-.05-.02-.1-.03-.17h-.01v-.12l-.02-.07c0-.06,0-.12,0-.18v-.14Z"/>
        <path class="cls-1" d="m149.35,252.46c-.01.64-.3,1.25-.78,1.67l1.15,2.46,20.63,6.66-6.43-13.63c-.12.02-.24.03-.36.03-.78,0-1.5-.39-1.92-1.01l-12.29,3.81Z"/>
        <path class="cls-1" d="m174.9,244.51l-9.05,2.81v.07c0,.7-.32,1.35-.87,1.78l5.81,12.32-.2-9c0-.1.02-.2.07-.29l4.24-7.68Z"/>
        <path class="cls-1" d="m168.21,233.29l-12.18-4.56s-.02.03-.03.04l-.06.09c-.11.15-.22.28-.35.39l7.51,15.93c.15-.03.3-.04.45-.04.81,0,1.56.42,1.97,1.1l9.65-3-6.97-9.93Z"/>
        <path class="cls-1" d="m130,217.23l-3.23-6.34s-.09.02-.14.03c-.04,0-.09.01-.14.02-.06,0-.13.01-.2.01-.1,0-.2,0-.31-.02-.04,0-.07-.01-.11-.02l-3.75,7.87,14.33,12.14-4.54-9.76c-.13.02-.26.03-.4.03-1.27,0-2.3-1.01-2.3-2.27,0-.66.29-1.27.78-1.7Z"/>
        <path class="cls-1" d="m154.46,229.78s-.06.01-.1.02c-.05,0-.1.01-.14.02-.06,0-.12,0-.18,0s-.12,0-.19,0c-.06,0-.11-.01-.16-.02-.04,0-.08-.01-.11-.02h-.06c-.05-.02-.1-.03-.13-.04h-.03s-.08-.04-.12-.05c-.17-.06-.31-.14-.46-.23-.04-.03-.1-.06-.14-.1-.07-.05-.15-.12-.23-.2-.02-.02-.05-.05-.07-.08l-.04-.04s-.04-.06-.07-.09c-.03-.05-.07-.09-.1-.14-.02-.03-.04-.06-.06-.09l-11.54,4.24v.11c0,.72-.36,1.41-.94,1.83l7.13,15.3c.11-.02.21-.02.32-.02.84,0,1.62.46,2.01,1.18l12.2-3.8c0-.06,0-.1,0-.16,0-.67.29-1.28.79-1.71l-7.5-15.91s-.06.02-.09.02Z"/>
        <path class="cls-1" d="m132.65,247.22c.35-.25.77-.4,1.21-.43l3.26-11.76c-.26-.15-.5-.34-.69-.58l-13.83,5.08,10.04,7.68Z"/>
        <path class="cls-1" d="m152.3,226.09s.03-.03.04-.05c.01-.02.03-.04.06-.07l.07-.07c.05-.05.11-.1.18-.16.02-.02.06-.04.1-.07.18-.12.36-.21.55-.27.02,0,.06-.02.1-.03.15-.04.28-.07.41-.08.03,0,.06,0,.11,0,.03,0,.08,0,.13,0,1.27,0,2.3,1.01,2.3,2.27v.05l11.83,4.43,2.02-8.18-34.1-3.84,16.21,6.07Z"/>
        <path class="cls-1" d="m132.84,297.16l5.15,2.51,1.34-24c-.09-.02-.17-.06-.26-.09-.07-.03-.13-.06-.2-.09,0,0-.04-.02-.04-.03l-16.39,18.12,10.32,3.54s.06.03.08.04Z"/>
        <path class="cls-1" d="m122,289.55l10.71-38.62c-.63-.42-1.01-1.12-1.01-1.87,0-.33.07-.64.21-.94l-9.91-7.58v49.01Z"/>
        <path class="cls-1" d="m159.43,287.17l-.41-6.8-17.94,18.42,4.16-1.87,14.2-9.75Z"/>
        <path class="cls-1" d="m156.15,281.65l2.29-2.35-16.39-4.88c-.12.26-.29.49-.5.69-.03.03-.06.06-.1.09-.1.08-.18.14-.26.19-.21.13-.44.23-.68.29l-1.31,23.36,11.17-11.47,5.78-5.93Z"/>
        <path class="cls-1" d="m122,238.53l13.97-5.13c-.02-.12-.03-.23-.03-.34,0-.31.07-.62.19-.9l-14.13-11.97v18.34Z"/>
        <path class="cls-1" d="m122,216.35l2.82-5.93c-.06-.06-.12-.11-.18-.17-.03-.03-.06-.06-.09-.1-.02-.02-.04-.05-.07-.09-.03-.03-.05-.07-.08-.11-.02-.03-.05-.07-.07-.1-.07-.1-.13-.23-.18-.36-.02-.04-.03-.09-.04-.13-.02-.06-.03-.09-.04-.14-.01-.04-.02-.08-.03-.13,0-.04-.02-.09-.02-.13,0-.04-.01-.09-.01-.14,0-.06,0-.09,0-.14s0-.09,0-.13c0-.03,0-.07,0-.1,0-.03,0-.05.01-.07,0-.03.01-.07.02-.1.01-.08.04-.19.07-.3l.03-.08c.03-.08.07-.17.11-.25l.02-.03s.03-.06.06-.09c.01-.02.03-.06.06-.1.07-.1.15-.21.25-.31.03-.03.06-.07.1-.1.02-.02.03-.03.05-.04l-2.79-5.44v14.82Z"/>
        <path class="cls-1" d="m134.62,218.69l34.83,3.92-9.85-10.61-24.97,6.69Z"/>
        <path class="cls-1" d="m133.31,217.5c.08.09.15.19.21.29l24.68-6.61-14.57-7.52-10.31,13.84Z"/>
        <path class="cls-1" d="m127.77,206.93c.06.05.12.1.18.17.03.03.06.07.1.1.03.04.07.08.1.12.03.04.06.08.08.12.03.05.06.09.08.14.03.04.05.09.07.14.02.04.03.08.05.12v.02c.04.08.07.17.09.25v.03s.02.05.02.07v.02s0,.02,0,.02c0,.03.01.07.02.11,0,.04.01.1.02.15,0,.05,0,.09,0,.14s0,.09,0,.14c0,.03,0,.06,0,.1,0,.03,0,.05-.01.07,0,.04-.01.07-.02.1-.01.08-.04.19-.07.3l-.03.08c-.07.19-.17.37-.29.53-.03.04-.06.08-.1.13-.03.03-.06.07-.1.1-.04.04-.09.09-.13.13l-.03.02,1.8,3.52,1.44,2.82c.15-.03.31-.04.46-.04.3,0,.59.06.85.16l10.34-13.87-8.43-9.7-6.51,13.68Z"/>
        <path class="cls-1" d="m125.82,206.46s.07-.01.11-.02c.02,0,.06-.01.1-.02.04,0,.09-.01.13-.01s.09,0,.13,0c.05,0,.1,0,.14,0,.03,0,.07,0,.11.01.03,0,.08,0,.12.02.01,0,.02,0,.03,0l6.13-12.89-10.65,5.78,3.63,7.12Z"/>
      </g>
    </g>
  </g>
</svg>