<?xml version="1.0" encoding="UTF-8"?>
<svg id="Layer_2" data-name="Layer 2" xmlns="http://www.w3.org/2000/svg" xmlns:xlink="http://www.w3.org/1999/xlink" viewBox="0 0 500 500">
  <defs>
    <style>
      .cls-1 {
        fill: url(#linear-gradient);
      }

      .cls-2 {
        fill: #ececec;
      }

      .cls-3 {
        fill: url(#linear-gradient-3);
      }

      .cls-4 {
        fill: url(#linear-gradient-4);
      }

      .cls-5 {
        fill: url(#linear-gradient-2);
      }

      .cls-6 {
        fill: url(#linear-gradient-5);
      }
    </style>
    <linearGradient id="linear-gradient" x1="184.46" y1="236.84" x2="245.2" y2="236.84" gradientUnits="userSpaceOnUse">
      <stop offset="0" stop-color="#00e4ff"/>
      <stop offset="1" stop-color="#9701ff"/>
    </linearGradient>
    <linearGradient id="linear-gradient-2" x1="201.07" y1="209.32" x2="129.43" y2="280.96" gradientUnits="userSpaceOnUse">
      <stop offset="0" stop-color="#00ff92"/>
      <stop offset="1" stop-color="#00a7ff"/>
    </linearGradient>
    <linearGradient id="linear-gradient-3" x1="89.41" y1="227.17" x2="103.17" y2="240.93" gradientUnits="userSpaceOnUse">
      <stop offset="0" stop-color="#ff0068"/>
      <stop offset="1" stop-color="#8a01ff"/>
    </linearGradient>
    <linearGradient id="linear-gradient-4" x1="106.82" y1="244.58" x2="143.19" y2="280.96" xlink:href="#linear-gradient-3"/>
    <linearGradient id="linear-gradient-5" x1="74.48" y1="290.68" x2="120.58" y2="244.58" gradientUnits="userSpaceOnUse">
      <stop offset="0" stop-color="#ff379b"/>
      <stop offset="1" stop-color="#ffb500"/>
    </linearGradient>
  </defs>
  <g id="Camada_1" data-name="Camada 1">
    <g>
      <circle class="cls-2" cx="250" cy="250" r="250"/>
      <g>
        <g>
          <path d="m235.47,221.43c-22.78,0-41.31,16.17-41.31,36.05s18.53,36.04,41.31,36.04,41.31-16.17,41.31-36.04-18.53-36.05-41.31-36.05Zm0,52.63c-11.85,0-21.85-7.59-21.85-16.58s10.01-16.59,21.85-16.59,21.85,7.59,21.85,16.59-10.01,16.58-21.85,16.58Z"/>
          <path d="m418.64,221.43c-5.37,0-9.73,4.36-9.73,9.73v17.03h-33.17v-17.03c0-5.37-4.36-9.73-9.73-9.73s-9.73,4.36-9.73,9.73v52.63c0,5.37,4.36,9.73,9.73,9.73s9.73-4.36,9.73-9.73v-16.14h33.17v16.14c0,5.37,4.36,9.73,9.73,9.73s9.73-4.36,9.73-9.73v-52.63c0-5.37-4.36-9.73-9.73-9.73Z"/>
          <path d="m336.5,244.07c5.12,1.63,10.59-1.2,12.22-6.32,1.63-5.12-1.2-10.59-6.32-12.22-20.24-6.44-41.47-5.19-52.84,3.12-5.91,4.32-9.16,10.44-9.16,17.24,0,12.03,11.26,19.19,33.48,21.28,0,0,.01,0,.02,0,8.67.82,13.01,2.22,15.01,3.14-.11.09-.23.19-.38.29-5.42,3.96-20.17,5.16-35.45.29-5.12-1.63-10.59,1.2-12.22,6.32-1.63,5.12,1.2,10.59,6.32,12.22,8.62,2.75,17.43,4.09,25.57,4.09,10.97,0,20.75-2.45,27.27-7.22,5.91-4.32,9.16-10.44,9.16-17.24,0-12.03-11.26-19.19-33.48-21.28,0,0-.01,0-.02,0-8.67-.82-13.01-2.22-15.02-3.14.11-.09.23-.19.38-.29,5.43-3.96,20.17-5.16,35.45-.29Z"/>
        </g>
        <g>
          <path class="cls-1" d="m235.46,267.21c-2.49,0-4.98-.95-6.88-2.85l-41.28-41.28c-3.8-3.8-3.8-9.96,0-13.76,3.8-3.8,9.96-3.8,13.76,0l41.28,41.28c3.8,3.8,3.8,9.96,0,13.76-1.9,1.9-4.39,2.85-6.88,2.85Z"/>
          <path class="cls-5" d="m136.31,283.81c-2.49,0-4.98-.95-6.88-2.85-3.8-3.8-3.8-9.96,0-13.76l57.87-57.87c3.8-3.8,9.96-3.8,13.76,0,3.8,3.8,3.8,9.96,0,13.76l-57.87,57.87c-1.9,1.9-4.39,2.85-6.88,2.85Z"/>
          <circle class="cls-3" cx="96.29" cy="234.05" r="9.73"/>
          <path class="cls-4" d="m136.31,283.81c-2.49,0-4.98-.95-6.88-2.85l-22.61-22.61c-3.8-3.8-3.8-9.96,0-13.76,3.8-3.8,9.96-3.8,13.76,0l22.61,22.61c3.8,3.8,3.8,9.96,0,13.76-1.9,1.9-4.39,2.85-6.88,2.85Z"/>
          <path class="cls-6" d="m81.36,293.53c-2.49,0-4.98-.95-6.88-2.85-3.8-3.8-3.8-9.96,0-13.76l32.34-32.34c3.8-3.8,9.96-3.8,13.76,0,3.8,3.8,3.8,9.96,0,13.76l-32.34,32.34c-1.9,1.9-4.39,2.85-6.88,2.85Z"/>
        </g>
      </g>
    </g>
  </g>
</svg>