<?xml version="1.0" encoding="UTF-8"?>
<svg id="Layer_2" data-name="Layer 2" xmlns="http://www.w3.org/2000/svg" viewBox="0 0 500 500">
  <defs>
    <style>
      .cls-1 {
        fill: #ececec;
      }

      .cls-2 {
        fill: #231f20;
      }
    </style>
  </defs>
  <g id="Camada_1" data-name="Camada 1">
    <g>
      <circle class="cls-1" cx="250" cy="250" r="250"/>
      <g>
        <path class="cls-2" d="m326.9,215.43c-13.04,0-42.68,37.89-34.65,37.89,2.67,0,25.74-25.52,24.63-27.52-1.23-2.01,7.91-.33,7.91,7.8s-10.47,19.83-6.91,19.83,20.17-18.39,29.97-33.21c1.67-2.45,5.01-1.34,2.67,2.34-2.45,3.57-25.74,36.66-35.88,36.66-4.57,0-9.03-6.91-9.03-9.69s1.89-6.8,1.89-6.8c0,0-14.04,16.49-18.16,16.49s-10.47-5.13-10.47-13.04c0-12.93,27.08-42.57,39.56-42.57,6.57,0,10.92,11.81,8.47,11.81Zm6.13-24.51c-6.69,0-13.71,6.35-20.06,6.35s-11.14-4.46-11.7-8.36c0-.56.56-.89,1.45-.89,1.34,0,1.45,2.67,5.79,2.67,7.13,0,12.03-5.46,18.83-5.46,4.79,0,9.69,2.79,12.48,5.68.78.78,1.45,1.89,1.45,2.23s.11,1-1,1c-2.12,0-3.23-3.23-7.24-3.23Z"/>
        <path class="cls-2" d="m372.92,244.41c-.33.45-.78,1-1.23,1.45,0,0-.56.67-1.56,1.78-5.35,5.57-11.92,10.47-18.05,11.37-.11.11-.22.11-.33.11-.22,0-.45,0-.56.11h-1.11c-4.46,0-11.92-2.23-11.92-14.04,0-19.95,21.39-41.45,33.54-41.45,6.24,0,10.7,4.12,13.48,8.8.45.78-.45,2.34-5.46,2.34-18.5,0-37.44,39.67-27.75,39.67,6.57,0,18.72-13.15,18.72-13.15,0,0-1-2.79-1-6.8,0-9.03,11.03-13.04,11.03-3.68,0,2.01-2.01,5.57-5.57,10.25.33.33,1.56.78,2.12.78,5.35,0,10.47-8.36,19.5-21.95,1.56-2.45,5.01-1.23,2.56,2.34-2.12,3.34-12.93,23.51-22.4,23.51-1.67,0-3.12-.78-4.01-1.45Z"/>
        <path class="cls-2" d="m236.79,289.65c41.87-10.65,84.92-16.78,128.12-17.93,12.22-.33,23.91-.8,36.13-.37.52.02,2.48.04,2.74-.83.26-.88-1.41-1.9-1.86-2.17-3.15-1.98-6.29-1.49-10-1.62-43.91-1.55-88.55.62-131.73,8.76-12.19,2.3-24.3,4.99-36.31,8.05-3.27.83.63,3.09,1.96,3.73,2.84,1.37,7.69,3.22,10.96,2.39h0Z"/>
        <path class="cls-2" d="m242.85,118.49c-12.55,0-25.77,5.28-43.6,16.68-8.42,5.45-16.52,12.06-24.77,19.98-8.59,7.76-16.02,15.69-22.3,23.62-2.97,3.63-5.95,7.43-8.42,10.9-14.7-3.3-25.27-9.91-27.75-18.83-1.98-7.43,7.43-11.56,2.64-11.56s-19.16,11.73-14.86,28.24c2.81,10.41,15.03,15.03,30.72,16.19l2.48-.17c-6.28,9.08-10.74,17.51-12.55,24.94-13.06,49.4,40.73,52.94,75.41,32.75.03-.02,8.4-5.45,13.62-9.91,1.71-1.61,2.78-2.64,2.78-2.64-.71.79-1.68,1.69-2.78,2.64-2.22,2.09-5.52,5.18-9.04,8.41-6.13,23.33-13.61,41.86-21.53,56.55-7.7,13.52-20.84,29.95-20.84,29.95-6.71,7.15-15.55,14.48-25.38,17.63-18.36,5.89-26.15-2.73-28.16-8.99-2.01-6.26-.31-10.08,1.26-11.76,1.54-1.78-.93-2.16-.93-2.16,0,0-6.61,5.28-3.04,16.42,3.57,11.14,18.56,22.83,39.14,16.23,1.33-.43,2.64-.93,3.93-1.5.01,0,11.28-3.99,26.7-20.36.87-.96,7.61-8.41,14.23-17.23.02-.11.05-.22.06-.32,3.7-5.2,7.5-11.1,11.32-17.75.53-1.17,1.08-2.12,1.64-2.9,10.5-18.84,21.12-43.5,30.43-75.73,3.08-10.11,4.48-17.87,3.81-21.73-2.81-15.03-10.24-19.98-15.53-18.5-5.28,1.32-1.82,2.64-.66,6.61.83,6.11-1.32,15.19-4.46,25.93l-2.15,5.29c-13.21,29.07-86.55,50.37-74.98,7.27l1.16-2.81c2.97-11.73,13.71-26.59,22.46-37.66,0,0,36.17-7.93,51.2-13.87,20.98-8.09,46.91-22.63,51.03-39.97,2.15-7.93,1.82-29.89-22.3-29.89Zm10.4,31.88c-2.48,10.9-25.76,26.59-38.15,31.38-12.37,5-25.54,8.8-38.27,10.09l-.04.04c-2.22.31-4.63.44-7.09.44,0,0-.01,0-.02,0h0c-10.98.03-22.87-2.4-22.87-2.4,9.68,1.79,18.46,1.3,24.74.4,1.39-1.55,2.69-3.16,4.07-4.77,4.95-5.29,10.74-11.23,17.34-16.68,8.42-6.77,15.03-11.23,18.99-13.38,15.19-9.41,26.26-13.87,33.69-13.87,4.29,0,8.92,3.3,7.6,8.75Z"/>
        <g>
          <path class="cls-2" d="m198.93,368.7l-1.62,7.03c-.4,1.71-2.08,2.78-3.79,2.39l-2.24-.52c-.46-.11-.76-.6-.66-1.05l2.66-11.51c.11-.48.6-.76,1.05-.66l2.24.52c1.71.4,2.75,2.1,2.36,3.81Zm-1.71-.4c.18-.77-.29-1.53-1.04-1.7l-1.39-.32-2.26,9.78,1.39.32c.75.17,1.5-.3,1.68-1.05l1.62-7.03Z"/>
          <path class="cls-2" d="m211.98,369.35l-.44,4.12,2.37.26c.24.02.41.24.39.48l-.09.87c-.03.24-.24.41-.48.39l-2.37-.26-.44,4.14,2.37.26c.25.03.42.24.39.48l-.09.87c-.03.25-.24.42-.48.39l-3.24-.35c-.49-.05-.83-.5-.78-.97l1.27-11.75c.05-.49.47-.83.97-.78l3.24.35c.25.03.42.24.39.48l-.09.87c-.02.25-.24.42-.48.39l-2.37-.26Z"/>
          <path class="cls-2" d="m244.82,367.81l1.39,12.62c.02.25-.15.46-.39.49l-.87.09c-.22.02-.46-.14-.48-.39l-.6-5.45-2.78.3.6,5.45c.02.24-.14.46-.39.48l-.87.09c-.25.03-.46-.14-.49-.39l-1.38-12.62c-.02-.24.14-.46.39-.48l.87-.1c.25-.03.46.14.49.39l.59,5.42,2.78-.3-.59-5.42c-.03-.24.17-.46.39-.48l.87-.09c.24-.03.46.14.48.39Z"/>
          <path class="cls-2" d="m260.18,377.91c.05.24-.09.47-.33.52l-.85.19c-.24.05-.47-.09-.52-.33l-2.79-12.38c-.06-.24.09-.47.33-.52l.86-.19c.21-.05.47.09.52.33l2.79,12.38Z"/>
          <path class="cls-2" d="m273.21,364.75l-.3-.88c-.25-.73-1.05-1.12-1.78-.87-.73.25-1.12,1.05-.87,1.78q.12.34.23.41l5.24,3.53q.91.62,1.19,1.45c.56,1.63-.33,3.44-1.96,4-1.63.56-3.44-.32-4-1.96l-.3-.88c-.08-.23.04-.48.27-.56l.83-.28c.23-.08.48.04.56.27l.3.88c.25.73,1.05,1.12,1.77.87.73-.25,1.12-1.05.87-1.78q-.12-.34-.23-.41l-5.24-3.53q-.91-.62-1.19-1.45c-.56-1.63.32-3.44,1.96-4.01,1.63-.56,3.44.33,4,1.96l.3.88c.08.23-.04.48-.27.56l-.83.28c-.23.08-.47-.04-.56-.27Z"/>
          <path class="cls-2" d="m287.19,354.92l.38.79c.11.22.01.48-.21.59l-1.12.53,4.88,10.27c.1.2.02.48-.21.58l-.79.38c-.22.11-.49-.01-.58-.21l-4.88-10.27-1.12.53c-.22.11-.48.01-.58-.21l-.37-.79c-.11-.22-.02-.48.21-.58l3.81-1.81c.22-.11.48-.01.58.21Z"/>
          <path class="cls-2" d="m296.48,346.6l-.13-3.21c-.03-.31.2-.71.46-.87l.72-.45c.28-.17.51-.06.52.26l.14,3.21c.03.31-.2.71-.46.87l-.72.45c-.28.18-.51.06-.52-.26Zm6.23,2.57l3.84,6.13c.93,1.49.48,3.45-.98,4.37-1.49.93-3.45.48-4.38-1.01l-3.84-6.13c-.92-1.46-.46-3.43,1.02-4.36,1.46-.92,3.43-.46,4.34,1Zm-1.49.93c-.41-.65-1.28-.85-1.93-.44-.67.42-.87,1.29-.47,1.94l3.84,6.13c.42.67,1.29.87,1.96.45.65-.41.85-1.28.43-1.95l-3.84-6.13Z"/>
          <path class="cls-2" d="m317.2,340.02c.57.7.81,1.56.71,2.39.83.07,1.61.46,2.18,1.16l2.57,3.17c.14.17.12.46-.06.62l-.68.55c-.19.16-.48.11-.62-.06l-2.58-3.17c-.48-.6-1.37-.69-1.96-.21l-1.08.88,3.46,4.25c.14.17.11.48-.07.62l-.68.55c-.19.16-.48.11-.61-.06l-7.72-9.51c-.31-.38-.25-.92.13-1.23l1.76-1.43c1.36-1.11,3.34-.88,4.43.46l.83,1.02Zm-2.19.08c-.48-.59-1.37-.69-1.96-.2l-1.08.88,2.61,3.21,1.08-.88c.6-.48.69-1.37.19-1.99l-.83-1.02Z"/>
          <path class="cls-2" d="m333,337.12c.17.17.18.45,0,.62l-.61.62c-.18.17-.45.18-.62,0l-9.03-8.91c-.18-.17-.18-.44,0-.62l.62-.62c.15-.16.44-.18.62,0l9.03,8.91Z"/>
          <path class="cls-2" d="m337.44,316.8l7.81,6.15c.2.15.23.42.07.62l-.54.69c-.15.19-.42.22-.62.07l-4.28-3.37-1.75,2.22,4.28,3.37c.19.15.22.42.07.62l-.54.69c-.15.19-.42.22-.61.07l-7.81-6.16c-1.36-1.07-1.59-3.07-.51-4.44,1.07-1.36,3.07-1.59,4.42-.52Zm-1.08,1.38c-.6-.47-1.49-.37-1.96.23-.49.62-.39,1.51.21,1.98l2.15,1.7,1.75-2.22-2.15-1.7Z"/>
          <path class="cls-2" d="m346.87,304.29l-.8-.48c-.66-.39-1.52-.18-1.92.48-.4.66-.18,1.52.48,1.92q.31.18.44.17l6.29-.67q1.09-.11,1.84.34c1.48.89,1.97,2.84,1.08,4.32-.89,1.48-2.84,1.97-4.33,1.08l-.8-.48c-.21-.13-.28-.39-.15-.6l.45-.75c.13-.21.39-.28.6-.15l.8.48c.66.4,1.52.18,1.92-.48.39-.66.18-1.52-.48-1.92q-.31-.18-.44-.17l-6.28.67q-1.09.11-1.84-.34c-1.48-.89-1.97-2.84-1.08-4.33.89-1.48,2.85-1.97,4.32-1.08l.8.48c.21.13.28.39.15.6l-.45.75c-.13.21-.39.28-.6.15Z"/>
        </g>
        <path class="cls-2" d="m294.69,282.52c-1.11,2.01-4.23,4.79-10.81,4.79-5.12,0-12.65-2.94-15.74-13.32-3.29.52-6.49,1.03-7.84,1.29-1.48.28,2.66-.77,7.62-2.01-.75-2.81-1.21-6.1-1.21-10.02,0-19.28,14.93-39.78,20.06-45.57,5.01-5.68-3.79-12.15-5.57-13.71-1.89-1.56-3.23.11-4.79,1-2.34,1.34-17.16,9.03-17.16,9.03,0,0,15.49-20.84,15.49-29.86,0-4.57-3.45-7.24-7.58-7.24-7.69,0-20.95,12.37-20.95,29.86,0,12.26,5.46,14.04,8.58,14.04,6.35,0,12.03-1.89,15.27-3.34,0,0,0,.01-.01.02,1.31-.62,2.69-1.4,3.94-2.38l-4.99,4c-5.48,8.64-14.09,24.53-14.09,39.25,0,11.25,4.27,19.52,10.01,24.89l4.49-.9-3.69,1.62c5.2,4.69,11.15,6.71,16.61,6.71,11.7,0,14.71-7.91,14.71-7.91,0,0-1.11-2.23-2.34-.22Zm-40-76.22c0-5.46,7.8-16.38,11.59-16.38s-3.12,10.59-9.58,22.4c0,0-2.01-2.12-2.01-6.02Z"/>
      </g>
    </g>
  </g>
</svg>